<svg width="266" height="84" viewBox="0 0 266 84" fill="none" xmlns="http://www.w3.org/2000/svg">
<path d="M2.94727 24.4384C0.435117 26.1231 -1.03728 29.6908 1.73824 33.9565C4.51376 38.2222 44.1664 67.0157 45.6205 67.8152C47.0746 68.6147 48.5293 68.7478 52.2282 65.9493C55.9298 63.1494 86.8533 41.2798 87.6512 40.622C88.921 39.576 89.238 37.0227 87.6512 35.8231C87.6512 35.8231 50.1886 62.2168 48.9619 63.2832C47.7353 64.3497 45.827 62.6169 46.1858 60.3509C46.5459 58.0849 46.8099 57.818 51.5682 54.3518C56.3265 50.8855 83.3053 31.6365 84.5294 30.7856C85.9155 29.822 85.9488 28.1189 83.6778 26.6122C80.5213 24.5182 46.4106 1.67903 45.2689 0.879538C44.1245 0.0800487 42.5417 -0.647599 40.1629 0.95204C37.784 2.55234 7.56246 21.3427 2.94727 24.4384Z" fill="white"/>
<path d="M45.6203 70.624C44.6662 70.0987 27.2681 57.5231 14.6309 47.7314V68.1471C14.6204 83.05 59.2202 91.0126 73.9964 72.6923V53.1796C64.9196 59.6361 54.3024 67.1894 52.2281 68.7574C48.5292 71.5566 47.0744 71.4235 45.6203 70.624Z" fill="white"/>
<path d="M64.5334 48.8992C64.6963 48.9999 64.9238 49.1506 65.1956 49.363C65.7877 49.8258 66.5948 50.5764 67.4202 51.7126C69 53.8876 70.6679 57.5047 71.0061 63.282L68.5237 62.6375L68.0891 62.5251L67.8879 62.9265L66.176 66.3494C65.4779 60.5206 63.8786 56.9938 62.3499 54.8845C61.5054 53.7194 60.6867 52.994 60.0657 52.5554C59.9856 52.4988 59.9092 52.4464 59.8362 52.3992L64.5334 48.8992Z" fill="white" stroke="#1C3141" stroke-width="1.10852"/>
<path d="M123.431 49.1528H118.553L107.509 32.464V49.1528H102.631V24.799H107.509L118.553 41.5227V24.799H123.431V49.1528ZM146.194 39.0838C146.194 39.7806 146.148 40.4078 146.055 40.9652H131.945C132.061 42.3589 132.548 43.4505 133.408 44.2403C134.267 45.03 135.324 45.4249 136.578 45.4249C138.39 45.4249 139.679 44.6467 140.446 43.0905H145.707C145.149 44.9487 144.081 46.4817 142.501 47.6895C140.922 48.8741 138.982 49.4664 136.683 49.4664C134.825 49.4664 133.152 49.0599 131.666 48.247C130.202 47.4108 129.053 46.2378 128.217 44.728C127.404 43.2183 126.997 41.4762 126.997 39.5019C126.997 37.5044 127.404 35.7507 128.217 34.2409C129.03 32.7312 130.168 31.5698 131.631 30.7568C133.094 29.9439 134.778 29.5374 136.683 29.5374C138.518 29.5374 140.155 29.9323 141.595 30.722C143.059 31.5117 144.185 32.6382 144.975 34.1016C145.788 35.5417 146.194 37.2024 146.194 39.0838ZM141.143 37.6902C141.119 36.4359 140.666 35.4371 139.784 34.6939C138.901 33.9274 137.821 33.5441 136.544 33.5441C135.336 33.5441 134.314 33.9157 133.478 34.659C132.665 35.3791 132.165 36.3894 131.979 37.6902H141.143ZM160.416 49.1528L156.444 43.1602L152.925 49.1528H147.699L154.005 39.4671L147.629 29.851H153.134L157.071 35.8088L160.625 29.851H165.851L159.51 39.4671L165.921 49.1528H160.416ZM173.448 45.2855H181.461V49.1528H168.57V24.8339H173.448V45.2855ZM202.505 39.0838C202.505 39.7806 202.458 40.4078 202.365 40.9652H188.255C188.371 42.3589 188.859 43.4505 189.718 44.2403C190.578 45.03 191.634 45.4249 192.889 45.4249C194.7 45.4249 195.989 44.6467 196.756 43.0905H202.017C201.459 44.9487 200.391 46.4817 198.812 47.6895C197.232 48.8741 195.293 49.4664 192.993 49.4664C191.135 49.4664 189.463 49.0599 187.976 48.247C186.513 47.4108 185.363 46.2378 184.527 44.728C183.714 43.2183 183.307 41.4762 183.307 39.5019C183.307 37.5044 183.714 35.7507 184.527 34.2409C185.34 32.7312 186.478 31.5698 187.941 30.7568C189.405 29.9439 191.089 29.5374 192.993 29.5374C194.828 29.5374 196.466 29.9323 197.906 30.722C199.369 31.5117 200.496 32.6382 201.285 34.1016C202.098 35.5417 202.505 37.2024 202.505 39.0838ZM197.453 37.6902C197.43 36.4359 196.977 35.4371 196.094 34.6939C195.211 33.9274 194.131 33.5441 192.854 33.5441C191.646 33.5441 190.624 33.9157 189.788 34.659C188.975 35.3791 188.475 36.3894 188.29 37.6902H197.453ZM204.811 39.4322C204.811 37.4811 205.194 35.7507 205.96 34.2409C206.75 32.7312 207.807 31.5698 209.131 30.7568C210.478 29.9439 211.976 29.5374 213.625 29.5374C215.066 29.5374 216.32 29.8277 217.388 30.4084C218.48 30.9891 219.351 31.7208 220.001 32.6034V29.851H224.914V49.1528H220.001V46.3307C219.374 47.2366 218.503 47.9915 217.388 48.5954C216.297 49.1761 215.031 49.4664 213.591 49.4664C211.965 49.4664 210.478 49.0483 209.131 48.2121C207.807 47.3759 206.75 46.203 205.96 44.6932C205.194 43.1602 204.811 41.4065 204.811 39.4322ZM220.001 39.5019C220.001 38.3173 219.769 37.3069 219.305 36.4707C218.84 35.6113 218.213 34.961 217.423 34.5197C216.633 34.0551 215.786 33.8228 214.88 33.8228C213.974 33.8228 213.138 34.0435 212.371 34.4848C211.605 34.9261 210.978 35.5765 210.49 36.4359C210.025 37.2721 209.793 38.2709 209.793 39.4322C209.793 40.5936 210.025 41.6156 210.49 42.4982C210.978 43.3576 211.605 44.0196 212.371 44.4842C213.161 44.9487 213.997 45.181 214.88 45.181C215.786 45.181 216.633 44.9603 217.423 44.519C218.213 44.0544 218.84 43.4041 219.305 42.5679C219.769 41.7085 220.001 40.6865 220.001 39.5019ZM234.556 32.8473C235.183 31.8253 235.996 31.0239 236.994 30.4433C238.016 29.8626 239.178 29.5722 240.479 29.5722V34.6939H239.189C237.656 34.6939 236.495 35.0539 235.705 35.7739C234.939 36.494 234.556 37.7482 234.556 39.5367V49.1528H229.678V29.851H234.556V32.8473ZM254.46 29.5722C256.76 29.5722 258.618 30.3039 260.035 31.7672C261.452 33.2073 262.16 35.2281 262.16 37.8295V49.1528H257.282V38.4915C257.282 36.9585 256.899 35.7855 256.132 34.9726C255.366 34.1364 254.321 33.7183 252.997 33.7183C251.65 33.7183 250.581 34.1364 249.791 34.9726C249.025 35.7855 248.642 36.9585 248.642 38.4915V49.1528H243.764V29.851H248.642V32.255C249.292 31.4188 250.117 30.7684 251.115 30.3039C252.137 29.8161 253.252 29.5722 254.46 29.5722Z" fill="white"/>
<path d="M104.24 63.0486H102.902V69.0547H101.394V63.0486H100.542V61.829H101.394V61.3176C101.394 60.487 101.613 59.8838 102.05 59.5079C102.496 59.1232 103.191 58.9309 104.135 58.9309V60.1767C103.68 60.1767 103.361 60.2641 103.178 60.4389C102.994 60.6051 102.902 60.8979 102.902 61.3176V61.829H104.24V63.0486ZM112.109 61.829V69.0547H110.614V68.2023C110.378 68.4995 110.067 68.7356 109.682 68.9104C109.307 69.0765 108.904 69.1596 108.476 69.1596C107.908 69.1596 107.396 69.0416 106.942 68.8055C106.496 68.5695 106.142 68.2198 105.879 67.7564C105.626 67.2931 105.499 66.7336 105.499 66.0779V61.829H106.981V65.8549C106.981 66.5019 107.143 67.0002 107.466 67.3499C107.79 67.6909 108.231 67.8613 108.791 67.8613C109.35 67.8613 109.792 67.6909 110.115 67.3499C110.447 67.0002 110.614 66.5019 110.614 65.8549V61.829H112.109ZM115.825 63.0486V67.0483C115.825 67.3193 115.886 67.516 116.009 67.6384C116.14 67.7521 116.358 67.8089 116.664 67.8089H117.582V69.0547H116.402C115.729 69.0547 115.213 68.8973 114.855 68.5826C114.496 68.2679 114.317 67.7564 114.317 67.0483V63.0486H113.465V61.829H114.317V60.0324H115.825V61.829H117.582V63.0486H115.825ZM125.504 61.829V69.0547H124.009V68.2023C123.773 68.4995 123.463 68.7356 123.078 68.9104C122.702 69.0765 122.3 69.1596 121.872 69.1596C121.303 69.1596 120.792 69.0416 120.337 68.8055C119.891 68.5695 119.537 68.2198 119.275 67.7564C119.021 67.2931 118.895 66.7336 118.895 66.0779V61.829H120.377V65.8549C120.377 66.5019 120.538 67.0002 120.862 67.3499C121.185 67.6909 121.627 67.8613 122.186 67.8613C122.746 67.8613 123.187 67.6909 123.511 67.3499C123.843 67.0002 124.009 66.5019 124.009 65.8549V61.829H125.504ZM128.971 62.8781C129.19 62.5109 129.479 62.2268 129.837 62.0257C130.204 61.8159 130.637 61.711 131.135 61.711V63.2584H130.755C130.169 63.2584 129.723 63.407 129.417 63.7043C129.12 64.0015 128.971 64.5173 128.971 65.2517V69.0547H127.477V61.829H128.971V62.8781ZM133.27 60.8717C132.999 60.8717 132.772 60.7799 132.588 60.5963C132.405 60.4127 132.313 60.1854 132.313 59.9144C132.313 59.6434 132.405 59.4161 132.588 59.2325C132.772 59.0489 132.999 58.9571 133.27 58.9571C133.532 58.9571 133.755 59.0489 133.939 59.2325C134.122 59.4161 134.214 59.6434 134.214 59.9144C134.214 60.1854 134.122 60.4127 133.939 60.5963C133.755 60.7799 133.532 60.8717 133.27 60.8717ZM134.004 61.829V69.0547H132.509V61.829H134.004ZM138.59 69.1727C138.022 69.1727 137.51 69.0722 137.056 68.8711C136.61 68.6613 136.256 68.3815 135.993 68.0318C135.731 67.6734 135.591 67.2756 135.574 66.8385H137.121C137.147 67.1444 137.292 67.4024 137.554 67.6122C137.825 67.8133 138.162 67.9138 138.564 67.9138C138.983 67.9138 139.307 67.8351 139.534 67.6777C139.77 67.5116 139.888 67.3018 139.888 67.0483C139.888 66.7773 139.757 66.5762 139.495 66.445C139.241 66.3139 138.835 66.1697 138.275 66.0123C137.733 65.8637 137.292 65.7194 136.951 65.5795C136.61 65.4397 136.313 65.2255 136.059 64.937C135.814 64.6485 135.692 64.2682 135.692 63.7961C135.692 63.4114 135.805 63.0617 136.033 62.747C136.26 62.4235 136.584 62.17 137.003 61.9864C137.432 61.8028 137.921 61.711 138.472 61.711C139.294 61.711 139.954 61.9208 140.452 62.3404C140.959 62.7513 141.23 63.3152 141.265 64.0321H139.77C139.744 63.7086 139.613 63.4507 139.377 63.2584C139.141 63.0661 138.822 62.9699 138.419 62.9699C138.026 62.9699 137.724 63.0442 137.515 63.1928C137.305 63.3415 137.2 63.5382 137.2 63.783C137.2 63.9753 137.27 64.137 137.41 64.2682C137.55 64.3993 137.72 64.5042 137.921 64.5829C138.122 64.6528 138.419 64.7446 138.813 64.8583C139.337 64.9982 139.766 65.1424 140.098 65.291C140.439 65.4309 140.732 65.6407 140.977 65.9205C141.221 66.2003 141.348 66.5718 141.357 67.0352C141.357 67.4461 141.243 67.8133 141.016 68.1367C140.789 68.4602 140.465 68.7137 140.046 68.8973C139.635 69.0809 139.149 69.1727 138.59 69.1727ZM144.716 63.0486V67.0483C144.716 67.3193 144.778 67.516 144.9 67.6384C145.031 67.7521 145.25 67.8089 145.556 67.8089H146.474V69.0547H145.293C144.62 69.0547 144.104 68.8973 143.746 68.5826C143.388 68.2679 143.208 67.7564 143.208 67.0483V63.0486H142.356V61.829H143.208V60.0324H144.716V61.829H146.474V63.0486H144.716ZM148.612 60.8717C148.341 60.8717 148.114 60.7799 147.93 60.5963C147.747 60.4127 147.655 60.1854 147.655 59.9144C147.655 59.6434 147.747 59.4161 147.93 59.2325C148.114 59.0489 148.341 58.9571 148.612 58.9571C148.874 58.9571 149.097 59.0489 149.281 59.2325C149.465 59.4161 149.556 59.6434 149.556 59.9144C149.556 60.1854 149.465 60.4127 149.281 60.5963C149.097 60.7799 148.874 60.8717 148.612 60.8717ZM149.346 61.829V69.0547H147.852V61.829H149.346ZM150.811 65.4353C150.811 64.6922 150.96 64.0409 151.257 63.4813C151.563 62.9131 151.982 62.4759 152.516 62.17C153.049 61.864 153.661 61.711 154.352 61.711C155.226 61.711 155.947 61.9208 156.515 62.3404C157.092 62.7513 157.481 63.3415 157.683 64.1108H156.07C155.938 63.7524 155.729 63.4726 155.44 63.2715C155.152 63.0704 154.789 62.9699 154.352 62.9699C153.74 62.9699 153.25 63.1885 152.883 63.6256C152.524 64.054 152.345 64.6572 152.345 65.4353C152.345 66.2134 152.524 66.821 152.883 67.2581C153.25 67.6952 153.74 67.9138 154.352 67.9138C155.217 67.9138 155.79 67.5335 156.07 66.7729H157.683C157.473 67.5073 157.079 68.093 156.502 68.5301C155.925 68.9585 155.208 69.1727 154.352 69.1727C153.661 69.1727 153.049 69.0197 152.516 68.7137C151.982 68.399 151.563 67.9619 151.257 67.4024C150.96 66.8341 150.811 66.1784 150.811 65.4353ZM164.074 59.3505V69.0547H162.579V59.3505H164.074ZM172.659 65.2648C172.659 65.5358 172.642 65.7806 172.607 65.9992H167.086C167.129 66.5762 167.344 67.0395 167.728 67.3892C168.113 67.7389 168.585 67.9138 169.145 67.9138C169.949 67.9138 170.517 67.5772 170.849 66.904H172.462C172.244 67.5685 171.846 68.1149 171.269 68.5433C170.701 68.9629 169.993 69.1727 169.145 69.1727C168.454 69.1727 167.833 69.0197 167.282 68.7137C166.74 68.399 166.312 67.9619 165.997 67.4024C165.691 66.8341 165.538 66.1784 165.538 65.4353C165.538 64.6922 165.687 64.0409 165.984 63.4813C166.29 62.9131 166.714 62.4759 167.256 62.17C167.807 61.864 168.436 61.711 169.145 61.711C169.827 61.711 170.434 61.8596 170.967 62.1568C171.501 62.4541 171.916 62.8737 172.213 63.4158C172.51 63.9491 172.659 64.5654 172.659 65.2648ZM171.099 64.7927C171.09 64.2419 170.893 63.8004 170.508 63.4682C170.124 63.136 169.647 62.9699 169.079 62.9699C168.563 62.9699 168.122 63.136 167.755 63.4682C167.387 63.7917 167.169 64.2332 167.099 64.7927H171.099ZM173.632 65.4091C173.632 64.6834 173.781 64.0409 174.078 63.4813C174.384 62.9218 174.795 62.4891 175.311 62.1831C175.835 61.8683 176.412 61.711 177.042 61.711C177.61 61.711 178.104 61.8246 178.523 62.0519C178.952 62.2705 179.293 62.5459 179.546 62.8781V61.829H181.054V69.0547H179.546V67.9794C179.293 68.3203 178.947 68.6044 178.51 68.8318C178.073 69.0591 177.575 69.1727 177.015 69.1727C176.395 69.1727 175.826 69.0153 175.311 68.7006C174.795 68.3771 174.384 67.9313 174.078 67.363C173.781 66.786 173.632 66.1347 173.632 65.4091ZM179.546 65.4353C179.546 64.937 179.441 64.5042 179.232 64.137C179.03 63.7698 178.764 63.4901 178.432 63.2977C178.099 63.1054 177.741 63.0092 177.356 63.0092C176.972 63.0092 176.613 63.1054 176.281 63.2977C175.949 63.4813 175.678 63.7567 175.468 64.1239C175.267 64.4824 175.166 64.9107 175.166 65.4091C175.166 65.9074 175.267 66.3445 175.468 66.7204C175.678 67.0964 175.949 67.3849 176.281 67.5859C176.622 67.7783 176.98 67.8744 177.356 67.8744C177.741 67.8744 178.099 67.7783 178.432 67.5859C178.764 67.3936 179.03 67.1139 179.232 66.7467C179.441 66.3707 179.546 65.9336 179.546 65.4353ZM184.513 62.8781C184.731 62.5109 185.02 62.2268 185.378 62.0257C185.746 61.8159 186.178 61.711 186.677 61.711V63.2584H186.296C185.711 63.2584 185.265 63.407 184.959 63.7043C184.662 64.0015 184.513 64.5173 184.513 65.2517V69.0547H183.018V61.829H184.513V62.8781ZM191.696 61.711C192.265 61.711 192.772 61.829 193.218 62.0651C193.672 62.3011 194.026 62.6508 194.28 63.1142C194.533 63.5775 194.66 64.137 194.66 64.7927V69.0547H193.178V65.0156C193.178 64.3687 193.017 63.8748 192.693 63.5338C192.37 63.1841 191.928 63.0092 191.369 63.0092C190.809 63.0092 190.363 63.1841 190.031 63.5338C189.708 63.8748 189.546 64.3687 189.546 65.0156V69.0547H188.051V61.829H189.546V62.6552C189.791 62.3579 190.101 62.1262 190.477 61.9601C190.862 61.794 191.268 61.711 191.696 61.711ZM197.328 60.8717C197.057 60.8717 196.829 60.7799 196.646 60.5963C196.462 60.4127 196.37 60.1854 196.37 59.9144C196.37 59.6434 196.462 59.4161 196.646 59.2325C196.829 59.0489 197.057 58.9571 197.328 58.9571C197.59 58.9571 197.813 59.0489 197.997 59.2325C198.18 59.4161 198.272 59.6434 198.272 59.9144C198.272 60.1854 198.18 60.4127 197.997 60.5963C197.813 60.7799 197.59 60.8717 197.328 60.8717ZM198.062 61.829V69.0547H196.567V61.829H198.062ZM203.67 61.711C204.239 61.711 204.746 61.829 205.192 62.0651C205.646 62.3011 206 62.6508 206.254 63.1142C206.507 63.5775 206.634 64.137 206.634 64.7927V69.0547H205.152V65.0156C205.152 64.3687 204.991 63.8748 204.667 63.5338C204.344 63.1841 203.902 63.0092 203.343 63.0092C202.783 63.0092 202.337 63.1841 202.005 63.5338C201.682 63.8748 201.52 64.3687 201.52 65.0156V69.0547H200.025V61.829H201.52V62.6552C201.765 62.3579 202.075 62.1262 202.451 61.9601C202.836 61.794 203.242 61.711 203.67 61.711ZM211.452 61.711C212.012 61.711 212.506 61.8246 212.934 62.0519C213.371 62.2705 213.712 62.5459 213.957 62.8781V61.829H215.465V69.1727C215.465 69.8371 215.325 70.4273 215.046 70.9431C214.766 71.4676 214.359 71.8785 213.826 72.1758C213.301 72.473 212.672 72.6216 211.938 72.6216C210.958 72.6216 210.145 72.39 209.498 71.9266C208.851 71.472 208.484 70.8513 208.397 70.0644H209.879C209.992 70.4404 210.233 70.742 210.6 70.9693C210.976 71.2053 211.422 71.3234 211.938 71.3234C212.541 71.3234 213.026 71.1398 213.393 70.7726C213.769 70.4054 213.957 69.8721 213.957 69.1727V67.9662C213.704 68.3072 213.358 68.5957 212.921 68.8318C212.493 69.0591 212.003 69.1727 211.452 69.1727C210.823 69.1727 210.246 69.0153 209.721 68.7006C209.206 68.3771 208.795 67.9313 208.489 67.363C208.191 66.786 208.043 66.1347 208.043 65.4091C208.043 64.6834 208.191 64.0409 208.489 63.4813C208.795 62.9218 209.206 62.4891 209.721 62.1831C210.246 61.8683 210.823 61.711 211.452 61.711ZM213.957 65.4353C213.957 64.937 213.852 64.5042 213.642 64.137C213.441 63.7698 213.175 63.4901 212.842 63.2977C212.51 63.1054 212.152 63.0092 211.767 63.0092C211.382 63.0092 211.024 63.1054 210.692 63.2977C210.36 63.4813 210.089 63.7567 209.879 64.1239C209.678 64.4824 209.577 64.9107 209.577 65.4091C209.577 65.9074 209.678 66.3445 209.879 66.7204C210.089 67.0964 210.36 67.3849 210.692 67.5859C211.033 67.7783 211.391 67.8744 211.767 67.8744C212.152 67.8744 212.51 67.7783 212.842 67.5859C213.175 67.3936 213.441 67.1139 213.642 66.7467C213.852 66.3707 213.957 65.9336 213.957 65.4353Z" fill="white"/>
</svg>
