<svg width="26" height="23" viewBox="0 0 26 23" fill="none" xmlns="http://www.w3.org/2000/svg">
<path d="M17.9645 13.1806C17.9645 13.433 17.8642 13.6751 17.6857 13.8536C17.5072 14.0321 17.2651 14.1324 17.0127 14.1324H14.1573V16.9878C14.1573 17.2402 14.057 17.4823 13.8785 17.6608C13.7 17.8393 13.4579 17.9396 13.2055 17.9396C12.953 17.9396 12.7109 17.8393 12.5324 17.6608C12.3539 17.4823 12.2537 17.2402 12.2537 16.9878V14.1324H9.39825C9.14582 14.1324 8.90372 14.0321 8.72523 13.8536C8.54673 13.6751 8.44645 13.433 8.44645 13.1806C8.44645 12.9281 8.54673 12.686 8.72523 12.5075C8.90372 12.329 9.14582 12.2288 9.39825 12.2288H12.2537V9.37335C12.2537 9.12092 12.3539 8.87882 12.5324 8.70032C12.7109 8.52183 12.953 8.42155 13.2055 8.42155C13.4579 8.42155 13.7 8.52183 13.8785 8.70032C14.057 8.87882 14.1573 9.12092 14.1573 9.37335V12.2288H17.0127C17.2651 12.2288 17.5072 12.329 17.6857 12.5075C17.8642 12.686 17.9645 12.9281 17.9645 13.1806ZM25.5789 6.51794V19.8432C25.5789 20.6005 25.2781 21.3268 24.7426 21.8623C24.2071 22.3977 23.4808 22.6986 22.7235 22.6986H3.68744C2.93014 22.6986 2.20385 22.3977 1.66836 21.8623C1.13287 21.3268 0.832031 20.6005 0.832031 19.8432V6.51794C0.832031 5.76064 1.13287 5.03436 1.66836 4.49887C2.20385 3.96337 2.93014 3.66254 3.68744 3.66254H6.98543L8.32747 1.65423C8.50101 1.39413 8.73594 1.18079 9.01151 1.03304C9.28707 0.885298 9.59479 0.807708 9.90747 0.807129H16.5035C16.8161 0.807708 17.1238 0.885298 17.3994 1.03304C17.675 1.18079 17.9099 1.39413 18.0834 1.65423L19.4255 3.66254H22.7235C23.4808 3.66254 24.2071 3.96337 24.7426 4.49887C25.2781 5.03436 25.5789 5.76064 25.5789 6.51794ZM23.6753 6.51794C23.6753 6.26551 23.575 6.02341 23.3965 5.84492C23.218 5.66642 22.9759 5.56614 22.7235 5.56614H18.9163C18.7595 5.56624 18.6052 5.52763 18.467 5.45375C18.3287 5.37986 18.2109 5.27297 18.1239 5.14259L16.5035 2.71073H9.90747L8.28702 5.14259C8.20003 5.27297 8.08219 5.37986 7.94396 5.45375C7.80573 5.52763 7.65139 5.56624 7.49465 5.56614H3.68744C3.435 5.56614 3.19291 5.66642 3.01441 5.84492C2.83591 6.02341 2.73564 6.26551 2.73564 6.51794V19.8432C2.73564 20.0956 2.83591 20.3377 3.01441 20.5162C3.19291 20.6947 3.435 20.795 3.68744 20.795H22.7235C22.9759 20.795 23.218 20.6947 23.3965 20.5162C23.575 20.3377 23.6753 20.0956 23.6753 19.8432V6.51794Z" fill="#343330"/>
</svg>
